# File created by Blade
# Date/Time:  Fri Jan 16 17:18:57 2015
#---------------------------------------------------------
:version 1.10
:name HOM
:units
  mass 1.0
  length 1.000000
  angle deg
:documentation
     Acclaim Skeleton File
:root
   axis xyz
   order TX TY TZ RX RY RZ
   position 0.000000 0.000000 0.000000
   orientation 0 0 0
:bonedata
   begin
      id 1
      name Spine_dum
      direction 0.000000 1.000000 0.000000
      length 7.170412
      axis 0.0 0.0 0.0 xyz
   end
   begin
      id 2
      name LeftUpLeg_dum
      direction 1.000000 0.000000 0.000000
      length 4.318350
      axis 0.0 0.0 0.0 xyz
   end
   begin
      id 3
      name RightUpLeg_dum
      direction -1.000000 0.000000 0.000000
      length 4.318350
      axis 0.0 0.0 0.0 xyz
   end
   begin
      id 4
      name Spine
      direction 0.000000 1.000000 0.000000
      length 0.000000
      axis 0.0 0.0 0.0 xyz
      dof rx ry rz
   end
   begin
      id 5
      name Spine_dum1
      direction 0.000000 1.000000 0.000000
      length 14.276153
      axis 0.0 0.0 0.0 xyz
   end
   begin
      id 6
      name Spine_dum2
      direction 0.000000 1.000000 0.000000
      length 10.718243
      axis 0.0 0.0 0.0 xyz
   end
   begin
      id 7
      name Spine_dum3
      direction 0.000000 1.000000 0.000000
      length 10.718243
      axis 0.0 0.0 0.0 xyz
   end
   begin
      id 8
      name Head
      direction 0.000000 1.000000 0.000000
      length 4.527550
      axis 0.0 0.0 0.0 xyz
      dof rx ry rz
   end
   begin
      id 9
      name LeftShoulder
      direction 1.000000 0.000000 0.000000
      length 7.058872
      axis 0.0 0.0 -90.0 xyz
      dof rx ry rz
   end
   begin
      id 10
      name LeftArm
      direction 1.000000 0.000000 0.000000
      length 10.955525
      axis 0.0 0.0 -90.0 xyz
      dof rx ry rz
   end
   begin
      id 11
      name LeftForeArm
      direction 1.000000 0.000000 0.000000
      length 8.193716
      axis 0.0 0.0 -90.0 xyz
      dof ry rz rx
   end
   begin
      id 12
      name LeftHand
      direction 0.000000 0.000000 0.000000
      length 0.000000
      axis 0.0 0.0 -90.0 xyz
      dof rx ry rz
   end
   begin
      id 13
      name LeftHand_dum1
      direction 0.000000 0.000000 0.000000
      length 0.000000
      axis 0.0 0.0 -90.0 xyz
   end
   begin
      id 14
      name LeftHand_dum2
      direction 1.000000 0.000000 0.000000
      length 3.937000
      axis 0.0 0.0 -90.0 xyz
   end
   begin
      id 15
      name LeftHandThumb1
      direction 0.000000 0.000000 1.000000
      length 3.937000
      axis 0.0 0.0 -90.0 xyz
      dof rx rz ry
   end
   begin
      id 16
      name RightShoulder
      direction -1.000000 0.000000 0.000000
      length 7.058872
      axis 0.0 0.0 90.0 xyz
      dof rx ry rz
   end
   begin
      id 17
      name RightArm
      direction -1.000000 0.000000 0.000000
      length 10.955525
      axis 0.0 0.0 90.0 xyz
      dof rx ry rz
   end
   begin
      id 18
      name RightForeArm
      direction -1.000000 0.000000 0.000000
      length 8.193716
      axis 0.0 0.0 90.0 xyz
      dof ry rz rx
   end
   begin
      id 19
      name RightHand
      direction 0.000000 0.000000 0.000000
      length 0.000000
      axis 0.0 0.0 90.0 xyz
      dof rx ry rz
   end
   begin
      id 20
      name RightHand_dum1
      direction 0.000000 0.000000 0.000000
      length 0.000000
      axis 0.0 0.0 90.0 xyz
   end
   begin
      id 21
      name RightHand_dum2
      direction -1.000000 0.000000 0.000000
      length 3.937000
      axis 0.0 0.0 90.0 xyz
   end
   begin
      id 22
      name RightHandThumb1
      direction 0.000000 0.000000 1.000000
      length 3.937000
      axis 0.0 0.0 90.0 xyz
      dof rx rz ry
   end
   begin
      id 23
      name LeftUpLeg
      direction 0.000000 -1.000000 0.000000
      length 17.323638
      axis 0.0 0.0 0.0 xyz
      dof rx ry rz
   end
   begin
      id 24
      name LeftLeg
      direction 0.000000 -1.000000 0.000000
      length 16.270368
      axis 0.0 0.0 0.0 xyz
      dof rx ry rz
   end
   begin
      id 25
      name LeftFoot
      direction 0.000000 -0.258819 0.965926
      length 4.922846
      axis 15.0 0.0 0.0 xyz
      dof rx ry rz
   end
   begin
      id 26
      name LeftToeBase
      direction 0.000000 0.000000 1.000000
      length 2.952750
      axis 0.0 0.0 0.0 xyz
      dof rx ry rz
   end
   begin
      id 27
      name RightUpLeg
      direction 0.000000 -1.000000 0.000000
      length 17.323638
      axis 0.0 0.0 0.0 xyz
      dof rx ry rz
   end
   begin
      id 28
      name RightLeg
      direction 0.000000 -1.000000 0.000000
      length 16.270368
      axis 0.0 0.0 0.0 xyz
      dof rx ry rz
   end
   begin
      id 29
      name RightFoot
      direction 0.000000 -0.258819 0.965926
      length 4.922846
      axis 15.0 0.0 0.0 xyz
      dof rx ry rz
   end
   begin
      id 30
      name RightToeBase
      direction 0.000000 0.000000 1.000000
      length 2.952750
      axis 0.0 0.0 0.0 xyz
      dof rx ry rz
   end
:hierarchy
   begin
      root Spine_dum LeftUpLeg_dum RightUpLeg_dum
      Spine_dum Spine
      LeftUpLeg_dum LeftUpLeg
      RightUpLeg_dum RightUpLeg
      Spine Spine_dum1 Spine_dum2 Spine_dum3
      Spine_dum1 Head
      Spine_dum2 LeftShoulder
      Spine_dum3 RightShoulder
      LeftShoulder LeftArm
      LeftArm LeftForeArm
      LeftForeArm LeftHand
      LeftHand LeftHand_dum1 LeftHand_dum2
      LeftHand_dum1 LeftHandThumb1
      RightShoulder RightArm
      RightArm RightForeArm
      RightForeArm RightHand
      RightHand RightHand_dum1 RightHand_dum2
      RightHand_dum1 RightHandThumb1
      LeftUpLeg LeftLeg
      LeftLeg LeftFoot
      LeftFoot LeftToeBase
      RightUpLeg RightLeg
      RightLeg RightFoot
      RightFoot RightToeBase
   end

# File created by Blade
# Date/Time:  Fri Jan 16 17:19:08 2015
# Frame Rate: 120.000 fps
#------------------------------------------------------
:FULLY-SPECIFIED
:DEGREES
409
root -5.562153 35.200213 -9.611526 -1.582618 -5.680964 -6.036762
Spine -0.330864 -0.152183 8.617728
Head 4.998588 2.661125 -6.676302
LeftShoulder -21.982684 14.405438 -16.052733
LeftArm 21.378835 -6.684872 -75.843481
LeftForeArm 15.502001 -0.000000 12.905037
LeftHand 0.246473 -0.000000 -5.221677
LeftHandThumb1 -26.253704 0.000000 33.147579
RightShoulder -4.234614 7.153637 -3.445212
RightArm -10.667435 38.036754 46.544608
RightForeArm 0.154515 -0.000000 28.792833
RightHand -0.379140 -0.000000 -10.834190
RightHandThumb1 -24.326973 -0.000000 -32.862282
LeftUpLeg 12.455003 14.608292 7.716660
LeftLeg -9.262369 -0.000000 0.000000
LeftFoot -15.967071 27.408287 -8.770529
LeftToeBase 22.538681 -0.000000 -0.000000
RightUpLeg 9.145704 -3.145143 4.643503
RightLeg -5.383044 -0.000000 0.000000
RightFoot -4.255202 -28.991024 3.210231
RightToeBase 13.749300 -0.000000 -0.000000
410
root -5.561789 35.199803 -9.611041 -1.585367 -5.673609 -6.042871
Spine -0.311929 -0.134836 8.620836
Head 4.936427 2.694518 -6.690126
LeftShoulder -21.991476 14.397400 -16.044694
LeftArm 21.372624 -6.688654 -75.843114
LeftForeArm 15.499355 0.000000 12.915892
LeftHand 0.247680 -0.000000 -5.204236
LeftHandThumb1 -26.253704 0.000000 33.147579
RightShoulder -4.231424 7.058022 -3.315746
RightArm -10.858508 38.469643 46.299444
RightForeArm -1.208485 0.000000 29.859049
RightHand -0.928110 -0.000000 -10.239951
RightHandThumb1 -24.326973 -0.000000 -32.862282
LeftUpLeg 12.462214 14.597618 7.721976
LeftLeg -9.271777 -0.000000 0.000000
LeftFoot -15.957418 27.415369 -8.747553
LeftToeBase 22.528708 -0.000000 -0.000000
RightUpLeg 9.143162 -3.170993 4.646409
RightLeg -5.368781 -0.000000 0.000000
RightFoot -4.264018 -28.973452 3.228478
RightToeBase 13.750309 -0.000000 -0.000000
411
root -5.560437 35.199424 -9.609937 -1.589142 -5.660022 -6.043149
Spine -0.293630 -0.122073 8.618469
Head 4.872137 2.713292 -6.707349
LeftShoulder -21.989070 14.410586 -16.042956
LeftArm 21.378123 -6.725449 -75.852156
LeftForeArm 15.559866 -0.000000 12.927345
LeftHand 0.267184 -0.000000 -5.190711
LeftHandThumb1 -26.253704 0.000000 33.147579
RightShoulder -4.243911 6.991388 -3.220122
RightArm -10.987518 38.588295 46.149450
RightForeArm -1.621447 -0.000000 30.735550
RightHand -0.804133 -0.000000 -10.358080
RightHandThumb1 -24.326973 -0.000000 -32.862282
LeftUpLeg 12.471331 14.594108 7.720018
LeftLeg -9.289136 -0.000000 0.000000
LeftFoot -15.950908 27.419048 -8.743899
LeftToeBase 22.539302 -0.000000 -0.000000
RightUpLeg 9.153826 -3.170520 4.644634
RightLeg -5.376329 -0.000000 0.000000
RightFoot -4.271677 -28.981391 3.226257
RightToeBase 13.790545 -0.000000 -0.000000
412
root -5.558423 35.199236 -9.609483 -1.594276 -5.653391 -6.038264
Spine -0.270990 -0.112695 8.606728
Head 4.807544 2.721926 -6.709423
LeftShoulder -21.996478 14.411404 -16.038114
LeftArm 21.376011 -6.762671 -75.862282
LeftForeArm 15.596811 -0.000000 12.940273
LeftHand 0.271403 0.000000 -5.198343
LeftHandThumb1 -26.253704 0.000000 33.147579
RightShoulder -4.246508 6.941222 -3.119382
RightArm -11.108876 38.633437 45.996442
RightForeArm -1.750966 0.000000 31.620432
RightHand -0.801601 -0.000000 -10.713693
RightHandThumb1 -24.326973 -0.000000 -32.862282
LeftUpLeg 12.473481 14.606477 7.716336
LeftLeg -9.287031 -0.000000 0.000000
LeftFoot -15.952211 27.395317 -8.739332
LeftToeBase 22.582318 -0.000000 -0.000000
RightUpLeg 9.156958 -3.184316 4.635588
RightLeg -5.371909 -0.000000 0.000000
RightFoot -4.270023 -28.972984 3.195746
RightToeBase 13.801796 -0.000000 -0.000000
413
root -5.556284 35.198829 -9.608523 -1.595866 -5.644203 -6.041483
Spine -0.261954 -0.100479 8.612078
Head 4.766519 2.727651 -6.728126
LeftShoulder -21.981538 14.436415 -16.025569
LeftArm 21.373290 -6.752432 -75.861502
LeftForeArm 15.535241 0.000000 12.936808
LeftHand 0.317570 -0.000000 -5.072420
LeftHandThumb1 -26.253704 0.000000 33.147579
RightShoulder -4.251770 6.899343 -3.053609
RightArm -11.239832 38.744464 45.854656
RightForeArm -1.951213 0.000000 32.466750
RightHand -0.734035 -0.000000 -10.811272
RightHandThumb1 -24.326973 -0.000000 -32.862282
LeftUpLeg 12.483266 14.598177 7.716872
LeftLeg -9.303619 -0.000000 0.000000
LeftFoot -15.945658 27.387481 -8.731270
LeftToeBase 22.578942 -0.000000 -0.000000
RightUpLeg 9.157736 -3.209372 4.635637
RightLeg -5.366983 -0.000000 0.000000
RightFoot -4.273263 -28.972826 3.194894
RightToeBase 13.758467 -0.000000 -0.000000
414
root -5.554060 35.198794 -9.608074 -1.594967 -5.631570 -6.040717
Spine -0.256118 -0.101920 8.609259
Head 4.723644 2.738349 -6.733849
LeftShoulder -21.972605 14.458442 -16.022713
LeftArm 21.369001 -6.755093 -75.854278
LeftForeArm 15.515186 -0.000000 12.946504
LeftHand 0.294623 -0.000000 -5.047667
LeftHandThumb1 -26.253704 0.000000 33.147579
RightShoulder -4.264231 6.843692 -2.976025
RightArm -11.304452 38.817501 45.737974
RightForeArm -1.989589 -0.000000 33.272646
RightHand -0.544331 0.000000 -10.983809
RightHandThumb1 -24.326973 -0.000000 -32.862282
LeftUpLeg 12.480343 14.607020 7.713666
LeftLeg -9.307141 -0.000000 0.000000
LeftFoot -15.935747 27.378342 -8.728552
LeftToeBase 22.560399 -0.000000 -0.000000
RightUpLeg 9.160628 -3.217380 4.631394
RightLeg -5.373462 -0.000000 0.000000
RightFoot -4.248714 -28.989546 3.154582
RightToeBase 13.800616 -0.000000 -0.000000
415
root -5.551413 35.198521 -9.607457 -1.596347 -5.617039 -6.039797
Spine -0.244760 -0.124063 8.611280
Head 4.671169 2.739946 -6.752602
LeftShoulder -22.006563 14.478404 -16.042224
LeftArm 21.398248 -6.743633 -75.837670
LeftForeArm 15.479254 0.000000 12.925716
LeftHand 0.319265 -0.000000 -5.049976
LeftHandThumb1 -26.253704 0.000000 33.147579
RightShoulder -4.257810 6.829019 -2.911991
RightArm -11.419164 38.963537 45.573471
RightForeArm -2.240719 -0.000000 34.075552
RightHand -0.485528 -0.000000 -10.964624
RightHandThumb1 -24.326973 -0.000000 -32.862282
LeftUpLeg 12.486634 14.571684 7.705323
LeftLeg -9.325540 -0.000000 0.000000
LeftFoot -15.932031 27.393592 -8.731920
LeftToeBase 22.535126 -0.000000 -0.000000
RightUpLeg 9.161270 -3.248465 4.626677
RightLeg -5.372524 -0.000000 0.000000
RightFoot -4.270020 -28.984708 3.197905
RightToeBase 13.803201 -0.000000 -0.000000
416
root -5.547357 35.198323 -9.606539 -1.594296 -5.601715 -6.035466
Spine -0.241664 -0.134741 8.617559
Head 4.627388 2.749662 -6.774207
LeftShoulder -22.005282 14.502327 -16.063898
LeftArm 21.407101 -6.806947 -75.845231
LeftForeArm 15.526786 -0.000000 12.915492
LeftHand 0.337711 -0.000000 -5.070552
LeftHandThumb1 -26.253704 0.000000 33.147579
RightShoulder -4.276315 6.807902 -2.875717
RightArm -11.466094 39.075278 45.472307
RightForeArm -2.161605 -0.000000 34.828031
RightHand -0.352024 -0.000000 -11.125949
RightHandThumb1 -24.326973 -0.000000 -32.862282
LeftUpLeg 12.476996 14.582656 7.689110
LeftLeg -9.325588 -0.000000 0.000000
LeftFoot -15.971597 27.401144 -8.792709
LeftToeBase 22.575863 -0.000000 -0.000000
RightUpLeg 9.161421 -3.263921 4.614702
RightLeg -5.374392 -0.000000 0.000000
RightFoot -4.259295 -28.976351 3.179085
RightToeBase 13.772342 -0.000000 -0.000000
417
root -5.544465 35.198490 -9.606369 -1.592070 -5.588418 -6.034655
Spine -0.239410 -0.149363 8.625521
Head 4.591068 2.736704 -6.801251
LeftShoulder -22.003916 14.521883 -16.084093
LeftArm 21.423083 -6.852038 -75.836510
LeftForeArm 15.553360 0.000000 12.874282
LeftHand 0.357028 -0.000000 -5.131781
LeftHandThumb1 -26.253704 0.000000 33.147579
RightShoulder -4.288133 6.802063 -2.846368
RightArm -11.549734 39.275681 45.337203
RightForeArm -2.324404 0.000000 35.582899
RightHand -0.369273 -0.000000 -10.739406
RightHandThumb1 -24.326973 -0.000000 -32.862282
LeftUpLeg 12.471072 14.560594 7.685918
LeftLeg -9.315810 -0.000000 0.000000
LeftFoot -15.935234 27.383231 -8.708637
LeftToeBase 22.572083 -0.000000 -0.000000
RightUpLeg 9.161078 -3.278656 4.608384
RightLeg -5.379147 -0.000000 0.000000
RightFoot -4.268631 -28.965624 3.275110
RightToeBase 13.678410 -0.000000 -0.000000
